<svg width="280" height="80" viewBox="0 0 280 80" fill="none" xmlns="http://www.w3.org/2000/svg">
<path d="M23.32 50.76V55.88H1.8V24.28H22.84V29.4H7.64V37.48H19.52V42.52H7.64V50.76H23.32ZM32.33 56.52C29.41 56.52 26.53 55.96 24.57 55.12V50.28C26.81 51.16 29.73 51.76 32.17 51.76C35.33 51.76 36.41 50.92 36.41 49.56C36.41 48.32 35.37 47.6 30.93 46.16C25.85 44.48 24.05 42.28 24.05 39.04C24.05 35.44 26.65 32.2 33.73 32.32C36.01 32.36 38.37 32.8 40.13 33.36V38.08C38.49 37.56 35.69 37.08 33.65 37.08C30.49 37.08 29.53 37.84 29.49 39.04C29.45 40.32 30.17 40.76 34.37 42.2C39.37 43.92 41.85 45.8 41.85 49.44C41.85 53.64 38.61 56.52 32.33 56.52ZM49.9597 56.52C47.0397 56.52 44.1597 55.96 42.1997 55.12V50.28C44.4397 51.16 47.3597 51.76 49.7997 51.76C52.9597 51.76 54.0397 50.92 54.0397 49.56C54.0397 48.32 52.9997 47.6 48.5597 46.16C43.4797 44.48 41.6797 42.28 41.6797 39.04C41.6797 35.44 44.2797 32.2 51.3597 32.32C53.6397 32.36 55.9997 32.8 57.7597 33.36V38.08C56.1197 37.56 53.3197 37.08 51.2797 37.08C48.1197 37.08 47.1597 37.84 47.1197 39.04C47.0797 40.32 47.7997 40.76 51.9997 42.2C56.9997 43.92 59.4797 45.8 59.4797 49.44C59.4797 53.64 56.2397 56.52 49.9597 56.52ZM72.3494 56.44C63.4294 56.44 59.3094 51.56 59.3094 44.56C59.3094 37.4 63.7494 32.44 70.4294 32.44C77.1094 32.44 81.4694 37.32 81.4694 44.56V46.8H65.2294C65.7894 49.84 68.1094 51.68 72.8694 51.68C74.8294 51.68 76.7894 51.4 78.8694 50.76V55.44C77.1894 56.04 75.0694 56.44 72.3494 56.44ZM65.2294 42.12H75.6694C75.3494 39.24 73.2694 37.36 70.4294 37.36C67.5894 37.36 65.4694 39.32 65.2294 42.12ZM88.3809 42.84V55.88H82.8609V33.2H88.3809V35.16C89.4609 33.88 91.7009 32.76 94.5009 32.76C100.301 32.76 103.901 36.28 103.901 42.84V55.88H98.3809V42.84C98.3809 39.72 96.4609 37.68 93.3809 37.68C90.3009 37.68 88.3809 39.72 88.3809 42.84ZM117.374 50.92V55.88C107.974 55.88 105.334 51.8 105.334 43.32V27.2H110.854V33.2H117.374V38.24H110.854V43.84C110.854 48.44 112.094 51 117.374 50.92ZM121.037 29.52C119.077 29.52 117.677 28.12 117.677 26.16C117.677 24.2 119.077 22.8 121.037 22.8C122.997 22.8 124.397 24.2 124.397 26.16C124.397 28.12 122.997 29.52 121.037 29.52ZM123.797 33.2V55.88H118.277V33.2H123.797ZM135.82 56.12C129.3 56.12 125.06 51.16 125.06 44.4C125.06 37.52 129.54 32.68 135.58 32.68C138.38 32.68 140.58 33.84 141.82 35.48V33.04H147.22V49.48C147.22 50.92 148.1 51.16 149.1 51.08V55.64C145.9 56.28 143.38 55.12 142.34 53.04C141.14 54.84 138.42 56.12 135.82 56.12ZM136.22 51.24C139.46 51.24 141.82 48.56 141.82 44.4C141.82 40.36 139.46 37.56 136.22 37.56C132.98 37.56 130.62 40.24 130.62 44.4C130.62 48.56 132.98 51.24 136.22 51.24ZM159.46 50.92V56C152.9 56 150.02 53.44 150.02 46.16V22.2H155.54V46.6C155.54 49.88 156.82 51 159.46 50.92ZM176.093 56.56C172.253 56.56 169.013 55.92 166.293 54.88V49.72C169.373 50.76 172.933 51.52 175.853 51.52C181.333 51.52 183.013 49.8 183.013 47.4C183.013 45.48 181.573 43.88 175.693 42C168.213 39.6 165.693 36.92 165.693 32.44C165.693 27.24 169.693 23.64 178.413 23.64C181.413 23.64 183.933 24 186.373 24.68V29.72C183.613 29 181.253 28.68 178.293 28.68C173.053 28.68 171.573 30.28 171.573 32.24C171.573 34.36 172.733 35.44 179.173 37.52C186.053 39.76 188.933 42.68 188.933 47.24C188.933 52.52 184.973 56.56 176.093 56.56ZM202.449 50.92V55.88C193.049 55.88 190.409 51.8 190.409 43.32V27.2H195.929V33.2H202.449V38.24H195.929V43.84C195.929 48.44 197.169 51 202.449 50.92ZM213.392 56.36C207.272 56.36 203.152 52.44 203.152 45.76V33.2H208.672V46.08C208.672 49.48 210.352 51.48 213.392 51.48C216.432 51.48 218.112 49.48 218.112 46.08V33.2H223.632V45.76C223.632 52.4 219.552 56.36 213.392 56.36ZM235.145 56.28C229.065 56.28 224.705 51.32 224.705 44.56C224.705 37.68 229.185 32.84 235.225 32.84C238.025 32.84 240.225 34 241.465 35.64V22.2H246.865V55.88H241.585V53.2C240.425 55.04 237.745 56.28 235.145 56.28ZM235.865 51.4C239.105 51.4 241.465 48.72 241.465 44.56C241.465 40.52 239.105 37.72 235.865 37.72C232.625 37.72 230.265 40.4 230.265 44.56C230.265 48.72 232.625 51.4 235.865 51.4ZM252.035 29.52C250.075 29.52 248.675 28.12 248.675 26.16C248.675 24.2 250.075 22.8 252.035 22.8C253.995 22.8 255.395 24.2 255.395 26.16C255.395 28.12 253.995 29.52 252.035 29.52ZM254.795 33.2V55.88H249.275V33.2H254.795ZM267.298 56.4C260.738 56.4 256.098 51.48 256.098 44.56C256.098 37.64 260.738 32.72 267.298 32.72C273.858 32.72 278.498 37.64 278.498 44.56C278.498 51.48 273.858 56.4 267.298 56.4ZM267.298 51.4C270.578 51.4 272.898 48.56 272.898 44.56C272.898 40.52 270.578 37.72 267.298 37.72C264.018 37.72 261.698 40.52 261.698 44.56C261.698 48.56 264.018 51.4 267.298 51.4Z" fill="#1A1A1A"/>
</svg>
